<svg id="Слой_1" xmlns="http://www.w3.org/2000/svg" viewBox="0 0 580.9 139.2"><style>.st0{fill-rule:evenodd;clip-rule:evenodd;fill:#d13239}.st1{fill:#59595c}</style><path class="st0" d="M79 16.6v60.6H34V16.6H0V1.4h113.2v15.2H79zM229.9 1.4v46.2c0 18.5-10.5 31.3-50.9 31.3-36.7 0-51.1-9.8-51.1-33V1.4H164v46.4c0 9.1 4.2 13.6 14.7 13.6s15.1-4.4 15.1-13.6V1.4h36.1zm50.4 43.7V62h6.2c1.9 0 3.6 0 5.2-.3 7.8-.9 11.6-4.2 11.6-8.8 0-5.1-3.4-7.2-11.6-7.7-3.8-.3-7.7-.1-11.4-.1zm-37.1 32.1V1.4h56.3c29 0 42.8 5.6 42.8 19.8 0 8.5-6.1 14.2-18.2 16.9 13.5 1.8 21.5 8.5 21.5 17.8 0 13.8-14 21.3-41 21.3h-61.4zm48.5-60.4c-3.8-.3-7.7-.1-11.4-.1v15.8c3.8 0 7.6 0 11.4-.3 7.8-.8 11.6-3.6 11.6-8.1 0-4.8-3.6-6.8-11.6-7.3zm115.2-.9c-9.5 0-13.1 8.3-13.1 23.9 0 15.8 3.8 22.5 13.5 22.5 9.5 0 13.3-6.7 13.3-22.5 0-9-1.1-23.9-13.7-23.9zm.4 63c-23.5 0-57.2-9.6-57.2-39.5 0-22.7 23.2-39.4 56.8-39.4 23.1 0 57.5 9.8 57.5 39.4.1 23.5-23.3 39.4-57.1 39.5zm108.1-62.3v16c3.3 0 6.5-.1 9.8-.5 6.5-1 9.7-3.6 9.7-7.6 0-3.8-3.2-6.4-9.7-7.4-3.2-.5-6.5-.5-9.8-.5zm0 32.7v27.9h-40V1.4h49.3c13.9 0 51.6-.2 51.6 23.5 0 13.4-10.1 18.3-21.2 20.6l25.8 31.7h-40.4l-25.1-27.9z"/><path class="st1" d="M38.6 134.1h11.2c3 0 4.8-.5 6.3-1.6 2.4-1.6 3-3.9 3.1-7.5H39.7v-4.8h19.4c-.1-2.2-.6-4.6-2.4-6.3-1.3-1.2-3.4-2.2-6.4-2.2H39v-4.8h13.2c2.1 0 6.4.2 9.5 3.3 3.2 3.2 3.5 8.1 3.5 12.4 0 6.3-.8 10.6-4 13.4-2.8 2.4-6.5 2.8-9 2.8H38.6v-4.7zm59.9 4.7h-6v-14.1H75.9v14.1h-6v-32h6V120h16.6v-13.1h6v31.9zm10.3 0c-1.4 0-2.6 0-3.7-1s-1.2-2.5-1.2-3.7v-22.6c0-1.3.4-2.6 1.1-3.3 1-1.1 2.6-1.2 3.8-1.2h20.5v4.8H112c-.5 0-1.2 0-1.6.5-.5.5-.5 1.1-.5 1.6v6.4H129v4.8h-19v7.5c0 .5.2 1 .5 1.2.4.4 1.1.4 2.1.4h17.1v4.8h-20.9zm24.9 0v-27.2c0-1.2 0-2.5 1.1-3.6 1-1 2.5-1.2 3.6-1.2h15.2c1.7 0 4.4 0 6.3 1.9 2.2 2.1 2.4 5.7 2.4 8.4 0 2.6-.3 6.7-2.8 8.8-1.2 1-3 1.6-4.9 1.6h-15v11.3h-5.9zm17.5-16.1c1.3 0 2.9 0 3.9-1.2 1-1.1 1.1-3.1 1.1-4.4 0-1.4-.1-3.3-1.1-4.4-1.1-1.1-2.7-1.1-3.7-1.1h-9.7c-.4 0-1 0-1.4.4-.4.4-.4 1-.4 1.5v9.1h11.3zm15.7 16.1v-27.3c0-1.2 0-2.3 1.1-3.4.6-.6 1.7-1.2 3.1-1.2h21.4v4.8h-17.2c-.6 0-1.7 0-2.1.5-.3.4-.3 1-.3 1.6v25.1h-6zm52.3 0l.2-24.3c0-.5 0-1-.5-1-.4 0-.7.7-1.2 1.5l-13.1 21.2c-.9 1.4-1.8 3-5.1 3-4.6 0-4.7-3.7-4.7-5.5v-26.8h6l-.1 23.8c0 .7 0 1.5.5 1.5.4 0 .6-.5.9-1l12.9-21.1c1.7-2.8 3.1-3.6 5.3-3.6 4.8 0 4.9 4.2 4.9 5.8v26.6h-6zm33.7 0v-25.1c0-.5-.1-1.1-.6-1.6s-1-.5-1.6-.5h-10c-1 0-2.1 0-3.1 1-1.1 1.1-1.1 2.9-1.1 4.4 0 2.2.2 3.4.6 4.2.5.9 1.6 1.6 3 1.6h6.3c.6 0 2.7 0 2.7 2v.7c0 .6-.2 1.6-1.4 2.8L237 138.8h-7.8l12.1-11v-.2h-4.2c-2.6 0-4.5-1.3-5.6-3.1-1.3-2.2-1.4-4.9-1.4-7.6 0-2.1 0-4.8 1.5-7.2 1.6-2.6 4-2.9 6.8-2.9h15.7c1 0 2.4.2 3.5 1.3 1.2 1.1 1.3 2.3 1.3 3.7v26.9h-6zm32.8 0v-27.2c0-1.2 0-2.5 1.1-3.6 1-1 2.5-1.2 3.6-1.2h15.2c1.7 0 4.4 0 6.3 1.9 2.2 2.1 2.4 5.7 2.4 8.4 0 2.6-.3 6.7-2.8 8.8-1.2 1-3 1.6-4.9 1.6h-15v11.3h-5.9zm17.5-16.1c1.3 0 2.9 0 3.9-1.2 1-1.1 1.1-3.1 1.1-4.4 0-1.4-.1-3.3-1.1-4.4-1.1-1.1-2.7-1.1-3.7-1.1h-9.7c-.4 0-1 0-1.4.4-.4.4-.4 1-.4 1.5v9.1h11.3zm20.9-12.6c1.1-2.7 2.4-3.6 5.2-3.6 2.7 0 4.1.9 5.2 3.6l12 28.7h-6.3l-3.3-8.1h-15.4l-3.2 8.1H312l12.1-28.7zm-.9 16.4h12.3l-5.2-13c-.2-.5-.5-1.3-.9-1.3s-.7.9-.9 1.3l-5.3 13zm24.4 7.6h14.7c.5 0 2.8 0 3.8-.6 1.5-.8 1.6-2.6 1.6-3.9 0-1 0-2.6-1.1-3.6-.3-.2-1.1-.9-3.7-.9h-14.6v-4.8h13.8c2.1 0 3.5-.3 4.2-1 .8-.9.8-2.4.8-3.3 0-1.2 0-2.7-1-3.6-.8-.6-1.8-.7-2.8-.7h-15.4v-4.8h16.8c2.1 0 4.7 0 6.7 2 1.8 1.8 2 4.3 2 6.7 0 2.1-.1 4-1.8 5.6-.7.7-1.7 1.2-2.7 1.4v.2c1.7.1 3.4.9 4.2 2.4.6 1 .9 2.6.9 5.2 0 2.3-.2 5.6-2.9 7.3-1.8 1.1-4.7 1.3-6.8 1.3h-16.5v-4.9zm50.9-27.2c1.7 0 4.1.2 5.8 1.9 1.8 1.8 2 4.7 2 6.8 0 1.7-.1 3.5-1.5 5.2-.9 1.1-1.8 1.6-3 1.6v.2c1.5.1 2.7.8 3.5 1.7 1.5 1.6 1.5 3.9 1.5 5.7 0 2.1 0 4.7-1.8 6.7-1.8 2.1-3.9 2.1-5.8 2.1h-15.3c-1.6 0-3.1.2-4.3-1.3-.3-.4-1.1-1.4-1.1-3.2v-22.8c0-1.2.3-2.5 1-3.3 1-1.1 2.4-1.3 3.4-1.3h15.6zm-2.4 13.4c1.2 0 2.5 0 3.3-1.1.2-.3.7-1 .7-3.2 0-.9 0-2.5-1-3.4-.9-.8-2-.8-3-.8h-9.9c-.5 0-1 0-1.4.4-.4.4-.4 1-.4 1.4v6.8h11.7zm-11.7 11.4c0 1 .1 1.6.4 1.9.5.5 1.5.5 2 .5h9.5c1 0 2.6 0 3.5-1.1.7-.8.8-2.2.8-3.2 0-.9-.1-2.4-.7-3.2-.4-.5-1.3-1.3-3.2-1.3h-12.2v6.4zm51.3 7.1l.2-24.3c0-.5 0-1-.5-1-.4 0-.7.7-1.2 1.5l-13.1 21.2c-.9 1.4-1.8 3-5.1 3-4.6 0-4.7-3.7-4.7-5.5v-26.8h6l-.1 23.8c0 .7 0 1.5.5 1.5.4 0 .6-.5.9-1l12.9-21.1c1.7-2.8 3.1-3.6 5.3-3.6 4.8 0 4.9 4.2 4.9 5.8v26.6h-6zm20.8 0v-27.2H444v-4.8h31v4.8h-12.5v27.2h-6zm45.2 0l.2-24.3c0-.5 0-1-.5-1-.4 0-.7.7-1.2 1.5l-13.1 21.2c-.9 1.4-1.8 3-5.1 3-4.6 0-4.7-3.7-4.7-5.5v-26.8h6l-.1 23.8c0 .7 0 1.5.5 1.5.4 0 .6-.5.9-1l12.9-21.1c1.7-2.8 3.1-3.6 5.3-3.6 4.8 0 4.9 4.2 4.9 5.8v26.6h-6zm33.7 0v-25.1c0-.5-.1-1.1-.6-1.6s-1-.5-1.6-.5h-10c-1 0-2.1 0-3.1 1-1.1 1.1-1.1 2.9-1.1 4.4 0 2.2.2 3.4.6 4.2.5.9 1.6 1.6 3 1.6h6.3c.6 0 2.7 0 2.7 2v.7c0 .6-.2 1.6-1.4 2.8l-10.7 10.5h-7.8l12.1-11v-.2h-4.2c-2.6 0-4.5-1.3-5.6-3.1-1.3-2.2-1.4-4.9-1.4-7.6 0-2.1 0-4.8 1.5-7.2 1.6-2.6 4-2.9 6.8-2.9h15.7c1 0 2.4.2 3.5 1.3 1.2 1.1 1.3 2.3 1.3 3.7v26.9h-6z"/></svg>